<?xml version="1.0" encoding="UTF-8" standalone="no"?>
<svg
   xmlns:dc="http://purl.org/dc/elements/1.1/"
   xmlns:cc="http://creativecommons.org/ns#"
   xmlns:rdf="http://www.w3.org/1999/02/22-rdf-syntax-ns#"
   xmlns:svg="http://www.w3.org/2000/svg"
   xmlns="http://www.w3.org/2000/svg"
   xmlns:sodipodi="http://sodipodi.sourceforge.net/DTD/sodipodi-0.dtd"
   xmlns:inkscape="http://www.inkscape.org/namespaces/inkscape"
   width="320.000000pt"
   height="320.000000pt"
   viewBox="0 0 320.000000 320.000000"
   version="1.1"
   id="svg16"
   sodipodi:docname="home.svg"
   inkscape:version="1.0.2 (e86c870879, 2021-01-15)">
  <metadata
     id="metadata22">
    <rdf:RDF>
      <cc:Work
         rdf:about="">
        <dc:format>image/svg+xml</dc:format>
        <dc:type
           rdf:resource="http://purl.org/dc/dcmitype/StillImage" />
        <dc:title></dc:title>
      </cc:Work>
    </rdf:RDF>
  </metadata>
  <defs
     id="defs20" />
  <sodipodi:namedview
     pagecolor="#ffffff"
     bordercolor="#666666"
     borderopacity="1"
     objecttolerance="10"
     gridtolerance="10"
     guidetolerance="10"
     inkscape:pageopacity="0"
     inkscape:pageshadow="2"
     inkscape:window-width="944"
     inkscape:window-height="480"
     id="namedview18"
     showgrid="false"
     inkscape:pagecheckerboard="true"
     inkscape:zoom="2.3625"
     inkscape:cx="116.61376"
     inkscape:cy="238.12865"
     inkscape:window-x="870"
     inkscape:window-y="496"
     inkscape:window-maximized="0"
     inkscape:current-layer="svg16" />
  <g
     transform="matrix(0.13590905,0,0,-0.13590905,-58.029773,380.91541)"
     fill="#fcf9f6"
     stroke="none"
     id="g14"
     style="fill:#ffffff;fill-opacity:1">
    <path
       d="M 1500,2794 C 520,2670 81,1531 743,824 1439,79 2677,494 2780,1507 c 74,722 -577,1375 -1280,1287 z m 477,-499 c 154,-70 228,-271 153,-420 -31,-60 -42,-65 -62,-23 -71,149 -244,258 -434,273 -83,7 -83,7 -69,35 74,144 259,204 412,135 z m -714,-264 c 29,-11 29,-11 -22,-67 -190,-208 -182,-525 18,-719 60,-58 42,-74 -96,-82 -405,-27 -631,473 -342,755 116,113 313,164 442,113 z m 892,-657 c 43,-85 44,-240 3,-324 -143,-291 -551,-287 -685,6 -31,68 -31,68 52,53 221,-38 446,75 547,274 35,70 44,69 83,-9 z"
       id="path12"
       style="fill:#ffffff;fill-opacity:1" />
  </g>
</svg>
